HIERARCHY
ROOT Hips
{
	OFFSET 0.000000 0.000000 0.000000
	CHANNELS 6 Xposition Yposition Zposition Zrotation Xrotation Yrotation
	JOINT Spine
	{
		OFFSET 0.000000 -0.000000 0.070167
		CHANNELS 6 Xposition Yposition Zposition Zrotation Xrotation Yrotation
		JOINT Spine1
		{
			OFFSET 0.000000 -0.000000 0.166666
			CHANNELS 6 Xposition Yposition Zposition Zrotation Xrotation Yrotation
			JOINT Neck
			{
				OFFSET 0.000000 -0.000000 0.183780
				CHANNELS 6 Xposition Yposition Zposition Zrotation Xrotation Yrotation
				JOINT Head
				{
					OFFSET 0.000000 -0.017114 0.132633
					CHANNELS 6 Xposition Yposition Zposition Zrotation Xrotation Yrotation
					End Site
					{
						OFFSET 0.000000 -0.000000 0.171140
					}
				}
			}
			JOINT LeftShoulder
			{
				OFFSET 0.034466 0.004091 0.144174
				CHANNELS 6 Xposition Yposition Zposition Zrotation Xrotation Yrotation
				JOINT LeftArm
				{
					OFFSET 0.121044 0.000000 0.000000
					CHANNELS 6 Xposition Yposition Zposition Zrotation Xrotation Yrotation
					JOINT LeftForeArm
					{
						OFFSET 0.257070 0.000000 0.000000
						CHANNELS 6 Xposition Yposition Zposition Zrotation Xrotation Yrotation
						JOINT LeftHand
						{
							OFFSET 0.224060 0.000000 0.000000
							CHANNELS 6 Xposition Yposition Zposition Zrotation Xrotation Yrotation
							End Site
							{
								OFFSET 0.128355 0.000000 0.000000
							}
						}
					}
				}
			}
			JOINT RightShoulder
			{
				OFFSET -0.033538 0.004091 0.144174
				CHANNELS 6 Xposition Yposition Zposition Zrotation Xrotation Yrotation
				JOINT RightArm
				{
					OFFSET -0.121044 0.000000 0.000000
					CHANNELS 6 Xposition Yposition Zposition Zrotation Xrotation Yrotation
					JOINT RightForeArm
					{
						OFFSET -0.257070 0.000000 0.000000
						CHANNELS 6 Xposition Yposition Zposition Zrotation Xrotation Yrotation
						JOINT RightHand
						{
							OFFSET -0.224060 0.000000 0.000000
							CHANNELS 6 Xposition Yposition Zposition Zrotation Xrotation Yrotation
							End Site
							{
								OFFSET -0.128355 0.000000 0.000000
							}
						}
					}
				}
			}
		}
	}
	JOINT LeftUpLeg
	{
		OFFSET 0.085570 0.000000 0.000000
		CHANNELS 6 Xposition Yposition Zposition Zrotation Xrotation Yrotation
		JOINT LeftLeg
		{
			OFFSET 0.000000 0.000000 -0.385526
			CHANNELS 6 Xposition Yposition Zposition Zrotation Xrotation Yrotation
			JOINT LeftFoot
			{
				OFFSET 0.000000 0.000000 -0.365921
				CHANNELS 6 Xposition Yposition Zposition Zrotation Xrotation Yrotation
				JOINT LeftToeBase
				{
					OFFSET 0.000000 -0.128355 -0.055620
					CHANNELS 6 Xposition Yposition Zposition Zrotation Xrotation Yrotation
					End Site
					{
						OFFSET 0.000000 -0.034228 0.000000
					}
				}
			}
		}
	}
	JOINT RightUpLeg
	{
		OFFSET -0.085570 0.000000 0.000000
		CHANNELS 6 Xposition Yposition Zposition Zrotation Xrotation Yrotation
		JOINT RightLeg
		{
			OFFSET 0.000000 0.000000 -0.385526
			CHANNELS 6 Xposition Yposition Zposition Zrotation Xrotation Yrotation
			JOINT RightFoot
			{
				OFFSET 0.000000 0.000000 -0.365921
				CHANNELS 6 Xposition Yposition Zposition Zrotation Xrotation Yrotation
				JOINT RightToeBase
				{
					OFFSET 0.000000 -0.128355 -0.055620
					CHANNELS 6 Xposition Yposition Zposition Zrotation Xrotation Yrotation
					End Site
					{
						OFFSET 0.000000 -0.034228 0.000000
					}
				}
			}
		}
	}
}
MOTION
Frames: 7
Frame Time: 0.016667
0.116881 -0.729112 0.821252 -23.783345 -4.266612 -2.128856 -0.000000 0.000000 0.070167 -6.656760 3.522347 2.512005 -0.000000 -0.000000 0.166666 -2.093479 2.198229 -5.231494 0.000000 -0.000000 0.183780 -1.415117 2.577903 -6.109785 -0.000000 -0.017114 0.132633 -2.907345 0.142543 -16.515409 0.034466 0.004091 0.144174 -8.323963 5.220599 -5.097238 0.121044 0.000000 0.000000 -45.589040 -2.818293 58.176205 0.257070 0.000000 -0.000000 -78.739377 9.801416 -16.447468 0.224060 0.000000 0.000000 -16.116410 -2.845468 -6.750558 -0.033538 0.004091 0.144174 -16.616841 6.840142 6.489359 -0.121044 -0.000000 0.000000 36.811810 10.672385 -73.492726 -0.257070 -0.000000 -0.000000 46.747809 10.139926 13.047259 -0.224060 -0.000000 -0.000000 13.231722 6.028497 13.008356 0.085570 0.000000 -0.000000 19.903079 4.887839 -1.066886 0.000000 0.000000 -0.385526 8.740482 18.064628 -1.400799 0.000000 0.000000 -0.365921 12.914441 -9.461194 11.555523 -0.000000 -0.128355 -0.055620 -0.000001 0.000000 0.000001 -0.085570 -0.000000 0.000000 -8.754596 -8.151446 4.429974 0.000000 0.000000 -0.385526 12.621309 19.193909 -8.181732 -0.000000 0.000000 -0.365921 -23.720142 0.095329 15.053453 -0.000000 -0.128355 -0.055620 -0.000000 0.000001 0.000002 
0.116615 -0.728245 0.821802 -25.551150 -4.091398 -2.303643 0.000000 0.000000 0.070167 -7.036430 3.574598 2.723044 0.000000 0.000000 0.166666 -2.216959 2.124011 -5.446862 -0.000000 -0.000000 0.183780 -1.054576 3.059366 -6.786855 -0.000000 -0.017114 0.132633 -2.400541 -0.380957 -15.290632 0.034466 0.004091 0.144174 -9.516786 4.207850 -5.391510 0.121044 -0.000000 0.000000 -47.920983 -0.926977 56.961432 0.257070 -0.000000 0.000000 -82.028550 11.471763 -18.115202 0.224060 0.000000 -0.000000 -15.442171 -3.686856 -5.541755 -0.033538 0.004091 0.144174 -16.612255 7.017975 6.370626 -0.121044 -0.000000 -0.000000 37.118175 10.769796 -74.097710 -0.257070 0.000000 0.000000 47.215670 10.722968 12.226962 -0.224060 -0.000000 0.000000 13.338724 6.858698 12.419447 0.085570 0.000000 -0.000000 20.704733 5.292580 -0.895980 -0.000000 0.000000 -0.385526 9.481085 17.295627 -1.514412 0.000000 -0.000000 -0.365921 12.985097 -9.013682 11.692025 -0.000000 -0.128355 -0.055620 0.000001 0.000001 -0.000001 -0.085570 0.000000 0.000000 -8.706221 -8.571480 4.194863 -0.000000 0.000000 -0.385526 12.609786 19.032549 -7.972032 0.000000 0.000000 -0.365921 -22.996444 0.498089 15.140496 0.000000 -0.128355 -0.055620 0.000002 0.000003 -0.000000 
0.115934 -0.727313 0.822650 -27.321083 -3.910407 -2.423928 -0.000000 0.000000 0.070167 -7.425361 3.645823 2.935031 -0.000000 0.000000 0.166666 -2.347485 1.954647 -5.707051 0.000000 -0.000000 0.183780 -0.718508 3.237827 -7.233389 0.000000 -0.017114 0.132633 -1.872642 -0.194015 -14.378494 0.034466 0.004091 0.144174 -10.978548 3.246953 -5.658341 0.121044 0.000000 -0.000000 -50.037529 0.986040 55.691365 0.257070 -0.000000 -0.000000 -84.868215 12.526510 -19.834600 0.224060 -0.000000 -0.000000 -15.126989 -5.005041 -6.287151 -0.033538 0.004091 0.144174 -16.670199 7.093591 6.352350 -0.121044 -0.000000 0.000000 37.407908 10.975980 -74.832693 -0.257070 0.000000 -0.000000 47.565540 11.551919 11.607133 -0.224060 0.000000 0.000000 13.680303 7.938702 12.210341 0.085570 0.000000 -0.000000 21.303358 5.688405 -0.765191 0.000000 0.000000 -0.385526 10.601151 16.484180 -1.705656 0.000000 0.000000 -0.365921 12.813010 -8.436736 11.822409 -0.000000 -0.128355 -0.055620 -0.000003 0.000000 -0.000001 -0.085570 0.000000 -0.000000 -8.172627 -8.822828 3.935632 0.000000 0.000000 -0.385526 12.563603 18.635609 -7.859964 0.000000 0.000000 -0.365921 -22.719854 1.030398 15.528770 0.000000 -0.128355 -0.055620 -0.000003 -0.000001 -0.000002 
0.115146 -0.725735 0.823627 -29.128660 -3.588149 -2.427413 -0.000000 -0.000000 0.070167 -7.869458 3.626893 3.083334 0.000000 -0.000000 0.166666 -2.493044 1.886280 -5.969410 -0.000000 -0.000000 0.183780 -0.160509 2.370206 -7.379318 -0.000000 -0.017114 0.132633 -1.018021 1.285264 -14.167299 0.034466 0.004091 0.144174 -12.325885 2.199096 -6.025443 0.121044 0.000000 -0.000000 -51.781433 2.774162 54.356056 0.257070 -0.000000 0.000000 -87.000586 14.082793 -21.429307 0.224060 0.000000 0.000000 -15.480101 -5.759598 -5.920325 -0.033538 0.004091 0.144174 -16.814975 7.119828 6.173445 -0.121044 -0.000000 0.000000 38.061065 11.347805 -75.394271 -0.257070 -0.000000 -0.000000 47.911472 12.489000 11.382339 -0.224060 -0.000000 0.000000 14.001135 8.921161 11.737424 0.085570 -0.000000 -0.000000 21.897329 5.845758 -0.670277 -0.000000 0.000000 -0.385526 12.150936 15.688012 -1.976737 0.000000 0.000000 -0.365921 12.460909 -7.866948 11.938135 -0.000000 -0.128355 -0.055620 -0.000001 0.000000 -0.000000 -0.085570 -0.000000 -0.000000 -8.619677 -9.449860 3.384127 0.000000 0.000000 -0.385526 13.016573 18.565701 -7.743893 -0.000000 0.000000 -0.365921 -22.031602 1.853286 15.955710 0.000000 -0.128355 -0.055620 0.000004 0.000003 -0.000002 
0.114354 -0.726031 0.824071 -30.822554 -3.810079 -2.736795 0.000000 0.000000 0.070167 -8.488183 3.819986 3.382438 -0.000000 -0.000000 0.166666 -2.686605 2.015179 -6.015585 -0.000000 -0.000000 0.183780 0.454523 1.713970 -7.567458 -0.000000 -0.017114 0.132633 -0.125865 2.517287 -13.841048 0.034466 0.004091 0.144174 -13.963518 1.153328 -6.339018 0.121044 0.000000 0.000000 -52.598232 4.563082 53.118364 0.257070 -0.000000 0.000000 -89.121558 15.408929 -22.536286 0.224060 0.000000 0.000000 -15.534131 -6.492746 -4.938991 -0.033538 0.004091 0.144174 -17.025624 7.173235 6.116478 -0.121044 -0.000000 0.000000 38.655490 11.597493 -75.917177 -0.257070 -0.000000 0.000000 48.151591 13.123747 11.305906 -0.224060 0.000000 -0.000000 14.029725 9.562238 11.655244 0.085570 0.000000 -0.000000 22.232167 6.778337 -0.399404 -0.000000 0.000000 -0.385526 12.889130 14.885045 -2.274780 0.000000 0.000000 -0.365921 12.506491 -7.246065 12.483462 0.000000 -0.128355 -0.055620 -0.000001 0.000001 -0.000000 -0.085570 0.000000 -0.000000 -8.665034 -9.190983 3.407040 0.000000 0.000000 -0.385526 13.159048 18.102781 -7.613360 -0.000000 0.000000 -0.365921 -21.492514 1.836855 16.133508 -0.000000 -0.128355 -0.055620 0.000000 0.000001 -0.000001 
0.113848 -0.723692 0.825296 -32.793043 -3.267692 -2.671921 -0.000000 0.000000 0.070167 -8.891638 3.835786 3.522703 0.000000 -0.000000 0.166666 -2.839556 1.552337 -6.360239 0.000000 0.000000 0.183780 0.756986 2.928920 -8.846144 -0.000000 -0.017114 0.132633 0.370346 1.359230 -11.525546 0.034466 0.004091 0.144174 -15.733262 0.195723 -6.731244 0.121044 -0.000000 0.000000 -53.045028 6.308168 52.037435 0.257070 -0.000000 0.000000 -90.965313 16.460230 -23.486353 0.224060 0.000000 0.000000 -15.441137 -7.277853 -4.477063 -0.033538 0.004091 0.144174 -17.075049 7.578301 6.012484 -0.121044 0.000000 -0.000000 39.077561 11.799673 -76.219345 -0.257070 -0.000000 -0.000000 48.426400 13.331938 11.456798 -0.224060 -0.000000 0.000000 14.195386 9.720712 11.902497 0.085570 0.000000 -0.000000 22.812946 6.585853 -0.251441 -0.000000 0.000000 -0.385526 13.814751 14.300137 -2.549436 -0.000000 -0.000000 -0.365921 12.430005 -6.558164 12.752645 0.000000 -0.128355 -0.055620 0.000001 0.000001 0.000000 -0.085570 0.000000 -0.000000 -8.404358 -9.878810 2.658292 0.000000 0.000000 -0.385526 13.363231 17.782761 -7.245613 -0.000000 0.000000 -0.365921 -20.930503 3.096650 16.588731 0.000000 -0.128355 -0.055620 -0.000003 0.000001 -0.000002 
0.112922 -0.723469 0.825721 -34.651684 -3.341557 -2.877062 0.000000 0.000000 0.070167 -9.450077 3.868012 3.792220 0.000000 -0.000000 0.166666 -3.003848 1.836227 -6.516482 0.000000 0.000000 0.183780 1.457764 1.765363 -8.827572 0.000000 -0.017114 0.132633 1.392221 3.243999 -11.480418 0.034466 0.004091 0.144174 -17.459316 -0.865302 -7.190927 0.121044 -0.000000 -0.000000 -53.023745 7.894925 50.822888 0.257070 -0.000000 0.000000 -92.988306 16.860774 -23.624579 0.224060 -0.000000 0.000000 -15.380751 -7.831191 -5.211365 -0.033538 0.004091 0.144174 -17.417081 7.443644 5.955391 -0.121044 0.000000 -0.000000 39.423196 12.047114 -76.490524 -0.257070 0.000000 0.000000 48.900657 13.315585 11.401854 -0.224060 -0.000000 -0.000000 13.845822 9.640636 11.940856 0.085570 -0.000000 -0.000000 23.085399 7.279527 -0.042989 0.000000 0.000000 -0.385526 15.045011 13.583200 -2.780076 0.000000 0.000000 -0.365921 12.347519 -6.014844 12.957647 0.000000 -0.128355 -0.055620 -0.000000 0.000002 -0.000002 -0.085570 -0.000000 -0.000000 -7.943637 -9.643754 2.545813 0.000000 0.000000 -0.385526 13.594947 17.112633 -7.129338 0.000000 0.000000 -0.365921 -20.949577 2.920362 16.238498 0.000000 -0.128355 -0.055620 -0.000001 -0.000002 -0.000001 
